<?xml version="1.0" encoding="UTF-8"?>
<svg id="Capa_1" data-name="Capa 1" xmlns="http://www.w3.org/2000/svg" viewBox="0 0 501 89">
  <defs>
    <style>
      .cls-1 {
        fill: #fff;
      }
    </style>
  </defs>
  <g id="Logo_Web_blanco" data-name="Logo Web blanco">
    <g>
      <path class="cls-1" d="m77.82,68.86c-.02-1.98-.04-3.95-.07-5.93l-48.52,2.64L24.61,7.27l50.8,5.4h.06s4.18-2.8,4.18-2.8L20.36.83l-.24-.04.35,28.69-.35,38.77,57.7.62Z"/>
      <path class="cls-1" d="m103.73,17.11l.34,12.59v.04s11.08,31.34,11.08,31.34l-30.35,1.38c.03,2.07.06,4.13.09,6.2l36.33.32h.35s-17.84-51.87-17.84-51.87Z"/>
      <polygon class="cls-1" points="95.58 8.34 76.42 20.42 82.75 23.86 79.09 31.08 85.72 34.83 89.87 27.86 95.74 31.11 95.58 8.34"/>
      <path class="cls-1" d="m123.57,71.42l-108.63-.02L1,88.52l150.84-4.11-28.27-12.99Zm-103.24,2.31l41.11-.41,56.55-.55h5.16l16.83,8.52-54.75,1.52-46.61,1.18-27.46.94,5.86-11.16,3.3-.04Z"/>
    </g>
    <g>
      <g>
        <path class="cls-1" d="m134.41,29.23l9,.08.94-3.73h-14.56c-.6.05-1.77.26-2.86,1.14-.96.77-1.42,1.7-1.66,2.4l-3.32,17.38c-.09.54-.19,1.95.75,3.19.53.7,1.19,1.08,1.65,1.27l14.57.03.9-3.66h-9.32l3.9-18.09Z"/>
        <path class="cls-1" d="m166.93,27.16c-.8-1.31-2.21-1.55-2.53-1.59h-15.38c-.6.09-1.5.34-2.36,1.02-.82.65-1.27,1.43-1.51,2.03l-3.65,18.01c-.07.52-.1,1.54.52,2.56.74,1.22,1.9,1.64,2.36,1.76h.09s14.18,0,14.18,0c.9-.16,2.22-.58,3.39-1.7.74-.71,1.32-1.6,1.67-2.63l3.61-17c.09-.4.22-1.45-.41-2.48Zm-17.22,20.6l3.75-19.2h5.9l-3.94,19.2h-5.71Z"/>
        <path class="cls-1" d="m191.3,26.55c-.75-.86-1.76-.97-2.07-.99h-18.58l-5.3,25.4h8.44l1.99-7.98,1.93.05.9,7.93h8.92l-1.5-8.11c.64-.25,1.23-.61,1.76-1.06.69-.59,1.26-1.35,1.66-2.25l2.52-10.58c.04-.23.2-1.43-.66-2.42Zm-9.89,13.55h-5.72l2.47-11.57h5.8l-2.55,11.57Z"/>
        <path class="cls-1" d="m215.93,27.01c-.66-.92-1.54-1.29-2.01-1.43h-18.55s-5.47,25.39-5.47,25.39h8.89l1.41-7.89h9.24c.65-.03,1.9-.21,3.07-1.12.87-.68,1.35-1.5,1.61-2.12l2.54-10.39c.03-.5-.03-1.49-.72-2.44Zm-9.77,13.1h-5.74l2.16-11.57h5.91l-2.33,11.57Z"/>
        <path class="cls-1" d="m240.27,27.03c-.79-1.29-2.22-1.45-2.41-1.46h-15.04c-.57.05-1.69.26-2.7,1.12-.95.81-1.34,1.79-1.5,2.33l-3.68,17.31c-.11.53-.2,1.57.37,2.68.63,1.23,1.71,1.76,2.14,1.93l.13.02h14.48c.67-.08,1.96-.36,3.11-1.4.95-.85,1.41-1.84,1.63-2.55l3.8-17.55c.09-.31.32-1.39-.32-2.44Zm-17.57,20.84l3.92-19.34h5.98l-3.76,19.34h-6.14Z"/>
        <path class="cls-1" d="m264.43,26.56c-.81-.9-1.88-.98-2.19-.99h-18.66l-5.05,25.41,8.71-.21,1.73-7.67h1.9l1.05,7.87h8.97l-1.55-8.32c.66-.19,1.26-.49,1.81-.9.97-.71,1.51-1.58,1.8-2.18l2.25-10.78c.02-.3.02-1.35-.77-2.23Zm-9.46,13.45h-5.94l2.31-11.48h5.9l-2.27,11.48Z"/>
        <path class="cls-1" d="m289.81,27.45c-.54-1.16-1.83-1.88-3.29-1.88h-14.57c-.46-.04-2.04-.06-3.28,1.13-.75.71-1.06,1.54-1.19,2.12l-4.26,22.15h8.92l1.57-7.91,4.34.03-1.69,7.87h8.84l4.81-21.49c.11-.5.17-1.26-.18-2.03Zm-10.12,12.56h-6.1l2.23-11.48h6.19l-2.31,11.48Z"/>
        <path class="cls-1" d="m300.48,29.24h9.27l.94-3.68h-14.72l-.1.02c-.7.22-1.37.53-1.98.92-.88.57-1.63,1.31-2.23,2.19l-3.04,17.42c-.09.56-.15,1.68.49,2.81.87,1.53,2.4,1.95,2.85,2.05h13.27s.74-3.7.74-3.7h-9.24l3.75-18.03Z"/>
        <polygon class="cls-1" points="312.97 25.56 307.68 50.97 316.23 50.97 321.65 25.56 312.97 25.56"/>
        <path class="cls-1" d="m344.43,27.05c-.68-1.11-1.79-1.42-2.12-1.48h-14.76c-.69.02-1.73.19-2.76.9-1.01.69-1.54,1.58-1.81,2.2l-3.48,18.11c-.1.4-.25,1.46.36,2.55.63,1.11,1.65,1.52,2.05,1.64l14.25.02h.04c1.11-.27,2.16-.8,3.04-1.52.81-.66,1.46-1.47,1.94-2.4l3.65-17.57c.09-.39.22-1.41-.41-2.43Zm-17.74,21.04l4.34-19.52h6.01l-3.96,19.52h-6.39Z"/>
        <polygon class="cls-1" points="337.39 22.57 339.41 20.61 335.46 20.61 331.8 24.37 335.77 24.37 337.39 22.57"/>
        <polygon class="cls-1" points="362.02 25.56 359.03 39.56 356.9 25.56 348.11 25.56 342.98 50.97 351.41 50.97 354.57 37.16 356.78 50.97 365.32 50.97 370.95 25.56 362.02 25.56"/>
      </g>
      <g>
        <polygon class="cls-1" points="389.07 25.56 380.15 25.56 374.78 50.97 392.79 50.97 393.49 47.27 384.45 47.27 389.07 25.56"/>
        <path class="cls-1" d="m413.16,25.56l-4.38,21.59h-4.43l4.26-21.59h-8.84l-4.24,20.82c-.09.4-.32,1.8.58,3.09.65.94,1.55,1.34,2.03,1.49l15.27.02h.04c.72-.18,1.77-.59,2.7-1.54.81-.83,1.19-1.74,1.38-2.39l4.47-21.49h-8.84Z"/>
        <path class="cls-1" d="m445.16,26.62c-.77-1-1.94-1.06-2.17-1.06h-14.69c-.72.02-1.81.2-2.88.94-1.06.73-1.61,1.67-1.89,2.32l-4.45,22.15h8.66l1.93-7.9,4.47.07-1.77,7.57h8.89l4.44-22.15c.03-.33.04-1.17-.55-1.94Zm-9.56,13.51h-5.98l2.35-11.6h6.11l-2.48,11.6Z"/>
        <polygon class="cls-1" points="462.78 25.56 459.32 39.61 457.13 25.56 448.54 25.56 443.37 50.97 451.96 50.97 455.02 37.28 457.54 50.97 465.67 50.97 471.21 25.56 462.78 25.56"/>
        <path class="cls-1" d="m494.99,28.71c-.06-.56-.25-1.08-.54-1.54-.77-1.18-2.02-1.52-2.58-1.61h-14.78c-.66.05-1.93.29-3.03,1.35-.98.94-1.3,2.06-1.41,2.63l-4.28,21.44h8.41l1.79-7.97,4.59.07-1.63,7.9h8.79l4.68-22.21v-.06Zm-10.05,11.32h-6.39l2.61-11.51h6.05l-2.26,11.51Z"/>
      </g>
    </g>
    <g>
      <path class="cls-1" d="m202,61.69c0-.25-.05-.46-.16-.65s-.31-.35-.61-.52c-.3-.17-.75-.34-1.34-.53-.51-.17-.99-.35-1.45-.56-.46-.21-.87-.46-1.22-.74-.36-.28-.63-.61-.84-.99-.2-.38-.31-.81-.31-1.32,0-.64.18-1.2.55-1.68.37-.47.87-.84,1.51-1.11.64-.26,1.37-.4,2.2-.4s1.57.15,2.2.44,1.12.7,1.47,1.23.53,1.14.53,1.84h-2.53c0-.3-.06-.56-.18-.78-.12-.23-.31-.4-.56-.53s-.58-.19-.97-.19c-.37,0-.69.05-.94.16-.25.11-.44.25-.56.43-.12.18-.18.38-.18.61s.08.44.25.61.41.34.73.49.71.29,1.16.44c.82.25,1.52.55,2.08.89s.98.74,1.27,1.2c.28.46.43,1.01.43,1.64,0,.66-.17,1.23-.51,1.71-.34.47-.82.84-1.44,1.08-.62.25-1.35.37-2.19.37-.57,0-1.13-.07-1.68-.22-.55-.15-1.05-.38-1.5-.69s-.8-.7-1.07-1.18c-.26-.48-.4-1.04-.4-1.7h2.53c0,.33.05.61.14.84s.24.41.42.56c.18.14.41.25.67.31.26.06.55.09.87.09.38,0,.69-.05.92-.16.24-.1.41-.24.52-.42s.17-.37.17-.58Z"/>
      <path class="cls-1" d="m209.87,64.84c-.89,0-1.65-.19-2.29-.56s-1.12-.86-1.46-1.48c-.34-.62-.51-1.3-.51-2.04v-.3c0-.83.16-1.58.47-2.24s.77-1.18,1.36-1.55c.59-.38,1.31-.56,2.14-.56s1.5.17,2.06.51c.56.34.98.82,1.27,1.44.29.62.44,1.35.44,2.19v1.03h-6.74v-1.63h4.36v-.19c0-.28-.06-.52-.16-.73-.1-.21-.25-.37-.45-.49-.2-.12-.47-.17-.79-.17-.38,0-.69.11-.91.32-.22.22-.38.5-.48.86-.1.36-.14.77-.14,1.22v.3c0,.42.08.79.23,1.1.16.32.38.56.68.74.3.18.65.27,1.07.27.39,0,.76-.07,1.1-.21.34-.14.64-.37.89-.69l1.15,1.35c-.26.38-.67.72-1.23,1.04-.56.31-1.25.47-2.07.47Z"/>
      <path class="cls-1" d="m214.23,60.42c0-.86.14-1.61.42-2.25.28-.65.67-1.15,1.19-1.51s1.12-.54,1.83-.54c.57,0,1.04.11,1.42.33.38.22.69.52.92.91.24.39.42.85.56,1.38s.24,1.1.32,1.73v.14c-.11.78-.28,1.49-.52,2.13-.24.64-.58,1.15-1.02,1.54s-1,.57-1.69.57-1.3-.19-1.82-.56c-.51-.37-.9-.88-1.18-1.52-.28-.64-.42-1.37-.42-2.18v-.16Zm7.83-4.14v8.1c0,.77-.17,1.43-.52,1.97-.35.54-.84.95-1.46,1.23-.62.28-1.35.42-2.17.42-.35,0-.72-.05-1.12-.14-.4-.09-.77-.24-1.13-.43s-.65-.43-.9-.71l1.06-1.49c.24.26.53.48.86.65.34.17.71.25,1.13.25.58,0,1.02-.15,1.34-.46.32-.31.47-.74.47-1.29v-6.12l.23-1.97h2.21Zm-5.4,4.31c0,.42.06.81.17,1.16.11.35.29.62.52.83.24.2.54.31.91.31.39,0,.71-.08.95-.25.24-.17.42-.4.54-.7s.18-.64.19-1.04v-.71c0-.34-.04-.64-.11-.9-.07-.26-.17-.48-.3-.66-.13-.18-.31-.31-.51-.4-.21-.09-.46-.14-.75-.14-.36,0-.66.1-.9.31s-.42.48-.54.83-.18.75-.18,1.19v.16Z"/>
      <path class="cls-1" d="m229.54,60.9c0,.76-.12,1.43-.35,2.03-.23.59-.58,1.06-1.04,1.4-.46.34-1.04.51-1.73.51-.83,0-1.51-.24-2.03-.73-.52-.48-.77-1.28-.77-2.4v-5.44h2.43v5.46c0,.27.05.49.14.66.09.17.22.29.39.37.17.08.36.12.59.12.44,0,.78-.09,1.02-.26.25-.17.42-.4.52-.7.1-.3.16-.63.16-1l.68-.02Zm-.94-4.63h2.43v8.41h-2.29l-.15-2.04v-6.38Z"/>
      <path class="cls-1" d="m235.06,64.69h-2.43v-8.41h2.29l.15,1.99v6.42Zm2.44-6.12c-.11-.02-.25-.03-.41-.04-.16-.01-.3-.02-.43-.02-.4,0-.74.06-1,.18-.26.12-.45.3-.58.54-.12.24-.19.55-.2.91l-.47-.24c0-.74.09-1.4.28-1.97.19-.57.46-1.02.82-1.34.36-.32.79-.48,1.3-.48.12,0,.25,0,.38.02.13.02.24.04.33.08l-.03,2.35Z"/>
      <path class="cls-1" d="m238.51,54.11c0-.36.12-.66.37-.89.25-.23.57-.35.98-.35s.74.12.98.35c.25.23.37.53.37.89s-.12.65-.37.89c-.25.23-.57.35-.98.35s-.74-.12-.98-.35c-.25-.23-.37-.53-.37-.89Zm2.58,10.57h-2.43v-8.41h2.43v8.41Z"/>
      <path class="cls-1" d="m242.49,60.42c0-.86.13-1.61.38-2.25s.63-1.15,1.12-1.51,1.09-.54,1.79-.54c.65,0,1.2.19,1.64.57.44.38.79.9,1.04,1.55.25.65.43,1.39.53,2.22v.14c-.1.78-.27,1.49-.53,2.13-.25.64-.6,1.15-1.04,1.54-.44.38-.99.57-1.66.57-.7,0-1.29-.19-1.78-.56-.49-.37-.86-.88-1.12-1.52s-.38-1.37-.38-2.18v-.16Zm2.43.16c0,.42.05.81.14,1.16.09.35.24.62.46.83s.51.31.87.31.65-.08.89-.25c.24-.17.41-.4.53-.7.12-.3.18-.64.19-1.04v-.71c0-.34-.04-.64-.11-.9-.07-.26-.17-.48-.3-.66-.13-.18-.29-.31-.49-.4-.2-.09-.43-.14-.69-.14-.36,0-.65.1-.87.31s-.37.48-.47.83-.14.75-.14,1.19v.16Zm2.81-7.84h2.44v11.94h-2.19l-.25-1.9v-10.05Z"/>
      <path class="cls-1" d="m256.61,60.92h-1.18c-.54,0-.93.12-1.17.36-.24.24-.35.53-.35.87,0,.25.09.45.27.62.18.16.42.25.71.25.31,0,.58-.06.81-.18.23-.12.4-.27.52-.44.12-.17.18-.33.17-.47l.61,1.04c-.08.21-.19.42-.33.64-.14.22-.31.42-.52.61-.21.19-.46.34-.75.46-.3.12-.65.17-1.05.17-.53,0-1.01-.11-1.45-.32-.44-.22-.78-.51-1.04-.89s-.38-.82-.38-1.32c0-.88.33-1.56.98-2.04s1.63-.73,2.93-.73h1.21l.02,1.38Zm-.33-1.83c0-.36-.09-.65-.27-.87-.18-.21-.47-.32-.86-.32-.22,0-.41.04-.57.11-.16.07-.28.18-.37.32-.09.14-.13.31-.13.52h-2.43c0-.51.15-.97.45-1.38s.72-.73,1.26-.98c.54-.24,1.18-.37,1.92-.37.66,0,1.25.11,1.76.33.52.22.92.55,1.22,1,.3.44.45,1,.45,1.66v3.49c0,.51.03.91.09,1.2.06.29.14.54.25.76v.13h-2.44c-.11-.24-.2-.55-.26-.91-.06-.37-.09-.74-.09-1.12v-3.56Z"/>
      <path class="cls-1" d="m259.98,60.42c0-.86.13-1.61.38-2.25s.63-1.15,1.12-1.51,1.09-.54,1.79-.54c.65,0,1.2.19,1.64.57.44.38.79.9,1.04,1.55.25.65.43,1.39.53,2.22v.14c-.1.78-.27,1.49-.53,2.13-.25.64-.6,1.15-1.04,1.54-.44.38-.99.57-1.66.57-.7,0-1.29-.19-1.78-.56-.49-.37-.86-.88-1.12-1.52s-.38-1.37-.38-2.18v-.16Zm2.43.16c0,.42.05.81.14,1.16.09.35.24.62.46.83s.51.31.87.31.65-.08.89-.25c.24-.17.41-.4.53-.7.12-.3.18-.64.19-1.04v-.71c0-.34-.04-.64-.11-.9-.07-.26-.17-.48-.3-.66-.13-.18-.29-.31-.49-.4-.2-.09-.43-.14-.69-.14-.36,0-.65.1-.87.31s-.37.48-.47.83-.14.75-.14,1.19v.16Zm2.81-7.84h2.44v11.94h-2.19l-.25-1.9v-10.05Z"/>
      <path class="cls-1" d="m271.61,64.33c0,.61-.15,1.22-.45,1.83-.3.61-.68,1.11-1.14,1.5l-1.24-.63c.12-.23.24-.47.37-.72.13-.24.23-.51.32-.81.09-.3.13-.64.13-1.03v-1.74h2.01v1.6Z"/>
      <path class="cls-1" d="m280.87,62.89c.26,0,.48-.05.68-.14s.34-.23.45-.41c.11-.18.16-.38.17-.62h2.28c0,.62-.16,1.16-.47,1.63-.31.47-.73.84-1.26,1.1-.53.26-1.12.4-1.79.4-.88,0-1.6-.19-2.18-.56-.58-.38-1.01-.89-1.3-1.53s-.43-1.37-.43-2.17v-.19c0-.8.14-1.53.43-2.17s.72-1.16,1.3-1.53c.58-.38,1.3-.56,2.17-.56.7,0,1.31.13,1.84.4.53.27.94.65,1.24,1.15.3.5.45,1.1.45,1.8h-2.28c0-.25-.06-.49-.15-.7-.1-.21-.24-.38-.43-.51s-.43-.19-.72-.19c-.4,0-.7.11-.91.33-.2.22-.34.5-.42.85-.07.35-.11.73-.11,1.14v.19c0,.41.03.8.1,1.15s.21.63.42.84.52.32.93.32Z"/>
      <path class="cls-1" d="m285.31,60.4c0-.82.16-1.55.47-2.2.31-.65.76-1.15,1.36-1.53s1.32-.56,2.18-.56,1.61.19,2.2.56c.6.37,1.05.88,1.36,1.53.31.65.46,1.38.46,2.2v.16c0,.81-.15,1.54-.46,2.19-.31.65-.76,1.16-1.36,1.53-.6.37-1.33.56-2.19.56s-1.59-.19-2.19-.56-1.05-.88-1.36-1.53c-.31-.65-.47-1.38-.47-2.19v-.16Zm2.43.16c0,.43.05.82.15,1.17.1.35.26.63.5.84.23.21.55.31.94.31s.71-.1.94-.31c.23-.21.4-.49.5-.84.1-.35.15-.74.15-1.17v-.16c0-.42-.05-.81-.15-1.16-.1-.35-.26-.64-.5-.85-.23-.21-.55-.32-.96-.32s-.7.11-.93.32-.4.5-.49.85c-.1.35-.15.74-.15,1.16v.16Z"/>
      <path class="cls-1" d="m297.02,64.69h-2.43v-8.41h2.28l.15,1.8v6.62Zm-.96-4.45c0-.86.14-1.6.41-2.21.27-.61.66-1.09,1.15-1.41s1.07-.49,1.72-.49c.53,0,.99.1,1.39.31.4.21.71.55.93,1.02.23.47.34,1.11.34,1.92v5.32h-2.44v-5.33c0-.34-.05-.6-.14-.78-.1-.18-.24-.31-.43-.38-.19-.07-.42-.1-.69-.1s-.52.05-.72.16c-.2.1-.37.25-.5.44-.13.19-.23.41-.29.67s-.09.54-.09.86l-.64.03Z"/>
      <path class="cls-1" d="m308.27,58.04h-5.31v-1.76h5.31v1.76Zm-4.08,6.65v-9.11c0-.97.28-1.71.85-2.22s1.34-.77,2.31-.77c.22,0,.42.02.62.05s.38.07.57.11l-.02,1.87c-.09-.02-.19-.04-.3-.05-.11,0-.23-.02-.37-.02-.39,0-.69.09-.9.26s-.32.43-.32.76v9.11h-2.44Z"/>
      <path class="cls-1" d="m309.33,54.11c0-.36.12-.66.37-.89.25-.23.57-.35.98-.35s.74.12.98.35c.25.23.37.53.37.89s-.12.65-.37.89c-.25.23-.57.35-.98.35s-.74-.12-.98-.35c-.25-.23-.37-.53-.37-.89Zm2.58,10.57h-2.43v-8.41h2.43v8.41Z"/>
      <path class="cls-1" d="m318.45,60.92h-1.18c-.54,0-.93.12-1.17.36-.24.24-.35.53-.35.87,0,.25.09.45.27.62.18.16.42.25.71.25.31,0,.58-.06.81-.18.23-.12.4-.27.52-.44.12-.17.18-.33.17-.47l.61,1.04c-.08.21-.19.42-.33.64-.14.22-.31.42-.52.61-.21.19-.46.34-.75.46-.3.12-.65.17-1.05.17-.53,0-1.01-.11-1.45-.32-.44-.22-.78-.51-1.04-.89s-.38-.82-.38-1.32c0-.88.33-1.56.98-2.04s1.63-.73,2.93-.73h1.21l.02,1.38Zm-.33-1.83c0-.36-.09-.65-.27-.87-.18-.21-.47-.32-.86-.32-.22,0-.41.04-.57.11-.16.07-.28.18-.37.32-.09.14-.13.31-.13.52h-2.43c0-.51.15-.97.45-1.38s.72-.73,1.26-.98c.54-.24,1.18-.37,1.92-.37.66,0,1.25.11,1.76.33.52.22.92.55,1.22,1,.3.44.45,1,.45,1.66v3.49c0,.51.03.91.09,1.2.06.29.14.54.25.76v.13h-2.44c-.11-.24-.2-.55-.26-.91-.06-.37-.09-.74-.09-1.12v-3.56Z"/>
      <path class="cls-1" d="m324.55,64.69h-2.43v-8.41h2.28l.15,1.8v6.62Zm-.96-4.45c0-.86.14-1.6.41-2.21.27-.61.66-1.09,1.15-1.41s1.07-.49,1.72-.49c.53,0,.99.1,1.39.31s.71.55.93,1.02c.23.47.34,1.11.34,1.92v5.32h-2.44v-5.33c0-.34-.05-.6-.14-.78-.1-.18-.24-.31-.43-.38-.19-.07-.42-.1-.69-.1s-.52.05-.72.16c-.2.1-.37.25-.5.44s-.23.41-.29.67-.09.54-.09.86l-.64.03Z"/>
      <path class="cls-1" d="m332.5,64.69h-1.63v-1.45l5.29-6.97h1.65v1.4l-5.31,7.01Zm4.48-6.45h-5.99v-1.96h5.99v1.96Zm.93,6.45h-6.41v-1.95h6.41v1.95Z"/>
      <path class="cls-1" d="m344.07,60.92h-1.18c-.54,0-.93.12-1.17.36-.24.24-.35.53-.35.87,0,.25.09.45.27.62.18.16.42.25.71.25.31,0,.58-.06.81-.18.23-.12.4-.27.52-.44.12-.17.18-.33.17-.47l.61,1.04c-.08.21-.19.42-.33.64-.14.22-.31.42-.52.61-.21.19-.46.34-.75.46s-.65.17-1.05.17c-.53,0-1.01-.11-1.45-.32-.44-.22-.78-.51-1.04-.89s-.38-.82-.38-1.32c0-.88.33-1.56.98-2.04.65-.49,1.63-.73,2.93-.73h1.21l.02,1.38Zm-.33-1.83c0-.36-.09-.65-.27-.87-.18-.21-.47-.32-.86-.32-.22,0-.41.04-.57.11-.16.07-.28.18-.37.32-.09.14-.13.31-.13.52h-2.43c0-.51.15-.97.45-1.38.3-.41.72-.73,1.26-.98s1.18-.37,1.92-.37c.66,0,1.24.11,1.76.33.52.22.92.55,1.22,1s.45,1,.45,1.66v3.49c0,.51.03.91.09,1.2.06.29.14.54.25.76v.13h-2.44c-.11-.24-.2-.55-.26-.91s-.09-.74-.09-1.12v-3.56Z"/>
      <path class="cls-1" d="m355.73,64.84c-.89,0-1.65-.19-2.29-.56-.63-.37-1.12-.86-1.46-1.48-.34-.62-.51-1.3-.51-2.04v-.3c0-.83.16-1.58.47-2.24.32-.66.77-1.18,1.37-1.55.59-.38,1.31-.56,2.14-.56s1.5.17,2.06.51c.56.34.98.82,1.27,1.44.29.62.44,1.35.44,2.19v1.03h-6.74v-1.63h4.36v-.19c0-.28-.06-.52-.16-.73-.1-.21-.25-.37-.45-.49-.2-.12-.47-.17-.79-.17-.38,0-.69.11-.91.32-.22.22-.38.5-.48.86-.1.36-.14.77-.14,1.22v.3c0,.42.08.79.23,1.1.16.32.38.56.68.74.3.18.65.27,1.07.27.39,0,.76-.07,1.1-.21.34-.14.64-.37.89-.69l1.15,1.35c-.26.38-.67.72-1.23,1.04-.56.31-1.25.47-2.07.47Z"/>
      <path class="cls-1" d="m364.36,54.11c0-.36.12-.66.37-.89.25-.23.57-.35.98-.35s.74.12.98.35c.25.23.37.53.37.89s-.12.65-.37.89c-.25.23-.57.35-.98.35s-.74-.12-.98-.35c-.25-.23-.37-.53-.37-.89Zm2.58,10.57h-2.43v-8.41h2.43v8.41Z"/>
      <path class="cls-1" d="m371.06,64.69h-2.43v-8.41h2.28l.15,1.8v6.62Zm-.96-4.45c0-.86.14-1.6.41-2.21.27-.61.66-1.09,1.15-1.41s1.07-.49,1.72-.49c.53,0,.99.1,1.39.31s.71.55.93,1.02c.23.47.34,1.11.34,1.92v5.32h-2.44v-5.33c0-.34-.05-.6-.14-.78-.1-.18-.24-.31-.43-.38-.19-.07-.42-.1-.69-.1s-.52.05-.72.16c-.2.1-.37.25-.5.44s-.23.41-.29.67-.09.54-.09.86l-.64.03Z"/>
      <path class="cls-1" d="m380.01,64.69h-2.43v-8.41h2.28l.15,1.8v6.62Zm-.96-4.45c0-.86.14-1.6.41-2.21.27-.61.66-1.09,1.15-1.41s1.07-.49,1.72-.49c.53,0,.99.1,1.39.31.4.21.71.55.93,1.02.23.47.34,1.11.34,1.92v5.32h-2.44v-5.33c0-.34-.05-.6-.14-.78-.1-.18-.24-.31-.43-.38-.19-.07-.42-.1-.69-.1s-.52.05-.72.16c-.2.1-.37.25-.5.44-.13.19-.23.41-.29.67s-.09.54-.09.86l-.64.03Z"/>
      <path class="cls-1" d="m386.25,60.4c0-.82.16-1.55.47-2.2.31-.65.76-1.15,1.36-1.53s1.32-.56,2.18-.56,1.61.19,2.2.56,1.05.88,1.36,1.53c.31.65.46,1.38.46,2.2v.16c0,.81-.15,1.54-.46,2.19-.31.65-.76,1.16-1.36,1.53-.6.37-1.33.56-2.19.56s-1.59-.19-2.19-.56c-.6-.37-1.05-.88-1.36-1.53-.31-.65-.47-1.38-.47-2.19v-.16Zm2.43.16c0,.43.05.82.15,1.17s.26.63.5.84c.23.21.55.31.94.31s.71-.1.94-.31c.23-.21.4-.49.5-.84s.15-.74.15-1.17v-.16c0-.42-.05-.81-.15-1.16s-.26-.64-.5-.85-.55-.32-.96-.32-.7.11-.93.32c-.23.21-.4.5-.49.85s-.15.74-.15,1.16v.16Z"/>
      <path class="cls-1" d="m399,62.91l.02,1.77h-1.52l-2.81-8.41h2.56l1.75,6.64Zm1.12-6.64h2.54l-2.79,8.41h-1.53l.03-1.77,1.75-6.64Z"/>
      <path class="cls-1" d="m408.22,60.92h-1.18c-.54,0-.93.12-1.17.36-.24.24-.35.53-.35.87,0,.25.09.45.27.62.18.16.42.25.71.25.31,0,.58-.06.81-.18.23-.12.4-.27.52-.44.12-.17.18-.33.17-.47l.61,1.04c-.08.21-.19.42-.33.64-.14.22-.31.42-.52.61-.21.19-.46.34-.75.46-.3.12-.65.17-1.05.17-.53,0-1.01-.11-1.45-.32-.44-.22-.78-.51-1.04-.89s-.38-.82-.38-1.32c0-.88.33-1.56.98-2.04s1.63-.73,2.93-.73h1.21l.02,1.38Zm-.33-1.83c0-.36-.09-.65-.27-.87-.18-.21-.47-.32-.86-.32-.22,0-.41.04-.57.11-.16.07-.28.18-.36.32-.09.14-.13.31-.13.52h-2.43c0-.51.15-.97.45-1.38s.72-.73,1.26-.98c.54-.24,1.18-.37,1.92-.37.66,0,1.25.11,1.76.33s.92.55,1.22,1c.3.44.45,1,.45,1.66v3.49c0,.51.03.91.09,1.2.06.29.14.54.25.76v.13h-2.44c-.11-.24-.2-.55-.26-.91-.06-.37-.09-.74-.09-1.12v-3.56Z"/>
      <path class="cls-1" d="m415.47,62.89c.26,0,.48-.05.68-.14.19-.1.34-.23.45-.41.11-.18.16-.38.17-.62h2.28c0,.62-.16,1.16-.47,1.63-.31.47-.73.84-1.26,1.1-.53.26-1.12.4-1.79.4-.88,0-1.6-.19-2.18-.56-.58-.38-1.02-.89-1.3-1.53-.29-.65-.43-1.37-.43-2.17v-.19c0-.8.14-1.53.43-2.17.29-.65.72-1.16,1.3-1.53.58-.38,1.3-.56,2.17-.56.7,0,1.31.13,1.84.4.53.27.94.65,1.24,1.15s.45,1.1.45,1.8h-2.28c0-.25-.06-.49-.15-.7-.1-.21-.24-.38-.43-.51s-.43-.19-.72-.19c-.4,0-.7.11-.91.33-.2.22-.34.5-.42.85-.07.35-.11.73-.11,1.14v.19c0,.41.03.8.11,1.15.07.35.21.63.42.84.21.21.52.32.92.32Z"/>
      <path class="cls-1" d="m420.23,54.11c0-.36.12-.66.37-.89.25-.23.57-.35.98-.35s.74.12.98.35c.25.23.37.53.37.89s-.12.65-.37.89c-.25.23-.57.35-.98.35s-.74-.12-.98-.35c-.25-.23-.37-.53-.37-.89Zm2.58,10.57h-2.43v-8.41h2.43v8.41Z"/>
      <path class="cls-1" d="m424.22,60.4c0-.82.16-1.55.47-2.2.31-.65.76-1.15,1.36-1.53.6-.37,1.32-.56,2.18-.56s1.61.19,2.2.56c.6.37,1.05.88,1.36,1.53.31.65.46,1.38.46,2.2v.16c0,.81-.15,1.54-.46,2.19-.31.65-.76,1.16-1.36,1.53s-1.33.56-2.19.56-1.59-.19-2.19-.56-1.05-.88-1.36-1.53c-.31-.65-.47-1.38-.47-2.19v-.16Zm2.43.16c0,.43.05.82.15,1.17s.26.63.5.84c.23.21.55.31.94.31s.71-.1.94-.31c.23-.21.4-.49.5-.84s.15-.74.15-1.17v-.16c0-.42-.05-.81-.15-1.16s-.26-.64-.5-.85c-.23-.21-.55-.32-.96-.32s-.7.11-.93.32c-.23.21-.4.5-.49.85s-.15.74-.15,1.16v.16Zm1.9-7.82h2.62l-2.18,2.43h-1.98l1.53-2.43Z"/>
      <path class="cls-1" d="m435.93,64.69h-2.43v-8.41h2.28l.15,1.8v6.62Zm-.96-4.45c0-.86.14-1.6.41-2.21.27-.61.66-1.09,1.15-1.41.49-.33,1.07-.49,1.72-.49.53,0,.99.1,1.39.31.4.21.71.55.93,1.02.23.47.34,1.11.34,1.92v5.32h-2.44v-5.33c0-.34-.05-.6-.14-.78-.1-.18-.24-.31-.43-.38-.19-.07-.42-.1-.69-.1s-.52.05-.72.16c-.2.1-.37.25-.5.44-.13.19-.23.41-.29.67-.06.26-.09.54-.09.86l-.64.03Z"/>
    </g>
  </g>
</svg>