<?xml version="1.0" encoding="UTF-8"?>
<svg id="Capa_1" data-name="Capa 1" xmlns="http://www.w3.org/2000/svg" viewBox="0 0 2500 859">
  <defs>
    <style>
      .cls-1 {
        fill: #004580;
        stroke-width: 0px;
      }
    </style>
  </defs>
  <path class="cls-1" d="m2138.83,82.07h8.11c9.65,5.66,13.31,16.28,18.63,25.08,73.2,126.52,146.5,252.98,219.79,379.46,35.42,61.62,71.56,122.91,106.61,184.69v1.21c-2.09,3.48-3.75,8.95-9.14,8.47-35.6.1-71.26.17-106.84-.03-8.54.32-10.84-8.28-14.07-13.82-6.48-11.34-13.46-22.4-19.3-34.05-9.99-15.64-17.86-32.31-27.85-47.93-7.67-15.46-17.59-29.8-25.32-45.23-4.77-9.34-11.05-17.94-15.78-27.29-7.02-13.89-16.1-26.75-22.92-40.74-10.28-16.43-18.79-33.71-29.07-50.14-7.22-14.72-16.83-28.29-24.12-42.98-5.1-10.1-11.91-19.39-16.98-29.53-6.6-13.15-15.38-25.25-21.67-38.53-3.14-5.14-5.3-12.28-11.9-14.34-4.24-.32-10.19-1.3-12.59,2.9-11.1,16.45-19.22,34.39-29.92,51.06-7.66,15.45-17.65,29.78-25.34,45.21-4.57,8.97-10.57,17.23-15.18,26.17-3.5,6.71-7.06,13.4-11.19,19.81-7.31,11.38-12.53,23.77-19.93,35.1-6.45,9.94-11.04,20.8-17.48,30.74-6.76,10.25-11.48,21.5-18.13,31.79-7.62,11.71-12.99,24.51-20.62,36.21-6.44,9.94-11,20.78-17.46,30.72-6.76,10.25-11.48,21.5-18.13,31.79-7.17,11.02-12.43,22.97-19.17,34.18-2.3,3.33-4.51,7.51-9.05,8.48-6.96,1.14-14.09.47-21.13.55-27.22-.02-54.44-.1-81.66.08-4.93-.08-10.84-.02-14.22-3.93-1.05-4.27-.67-8.89,1.85-12.65,111.04-191.98,222.31-383.84,333.46-575.79,1.71-2.94,4.77-4.88,7.73-6.71h0ZM16.41,174.27c7.62-7.41,19.17-4.98,29.01-5.23,99.15.05,198.27,0,297.42.02,29.16-.91,58.68,3.16,86.05,12.58,46.06,15.24,85.7,49.47,100.61,93.01,6.6,16.51,8.03,34.28,9.36,51.68-1.21,18.64-3.66,37.58-11.3,55.03-9.16,20.43-22.38,40.1-42.09,53.24-4.75,4.23-12.12,6.02-15.58,11.34,26.23,8.73,48.79,25.28,65.8,45.47,27.96,33.73,35.75,78.37,30.99,119.78-2.5,27.3-11.01,54.41-26.46,77.92-10.32,14.62-23.05,28.02-38.5,38.19-33.73,23.09-75.48,33.73-116.7,38.11-8.45,1.06-17.12.49-25.41,2.63H23.97c-2.79-2.07-5.39-4.38-7.56-7.03V174.27m111.28,85.78c-3.17,3.58-2.3,8.47-2.48,12.75.28,44.45-.43,88.92.36,133.36,2.96,3.4,7.49,5.73,12.29,5.49,64.09.05,128.2-.07,192.28.07,8.92.35,17.7-1.37,26.5-2.51,19.95-2.68,39.88-9.96,53.79-23.84,9.52-8.73,13.85-20.85,17.06-32.56.78-9.48,4.06-19.01,1.2-28.48-1.38-16.03-8.43-31.6-20.2-43.5-16.49-13.79-38.56-20.38-60.32-22.81-6.96-.63-14.04.32-20.95-.95-8.59-1.71-17.39-.89-26.1-.99-52.61-.05-105.22.05-157.81-.07-5.48,0-10.96,1.39-15.63,4.03m3.57,240.82c-2.14.62-4.19,1.79-4.84,3.91-3.87,6.89-3.07,14.83-3.03,22.32.07,45.74-.05,91.49.05,137.22.11,6.54,4.06,15.81,12.61,15.01,67.72.03,135.45-.04,203.16.02,6.8.21,13.6,0,20.31-1.14,23.83-1.87,48.49-6.28,68.57-18.94,16.14-10.54,25.01-27.97,28.45-45.53,4.57-20.26,2.86-41.46-3.52-61.23-5.72-15.26-17-29.16-32.81-36.55-20.89-10.61-44.86-13.79-68.28-15.63-71.36.02-142.72.02-214.09,0-2.21-.05-4.43.13-6.6.53h0ZM677.24,169.53c7.54-1.14,15.25-.33,22.87-.47,105.19-.02,210.38.05,315.59-.04,47.55,2.24,95.86,17.58,130.21,48.87,26.12,23.81,41.86,56.48,45.63,89.99-.07,13.27.6,26.57-.4,39.82-4.52,28.44-16.63,57.08-39.84,76.99-6.56,6.34-13.69,12.23-22.03,16.51-1.72,1.34-5.37,2.01-4.3,4.72,26.69,10.04,50.8,26.82,67.39,48.68,7.13,9.02,12.26,19.19,17.19,29.35,9.81,20.43,11.64,43.03,13.08,65.05-1.21,17.03-2.32,34.21-6.73,50.88-6.42,29.04-22.8,55.96-45.67,76.68-9.34,7.11-18.77,14.24-29.25,19.9-29.56,16.7-63.96,24.41-98.02,28.56-9.5,1.49-19.29.69-28.67,3.01h-335.43c-5.22-2.81-10.28-7.24-9.61-13.35.04-190.75.04-381.51,0-572.26-.22-5.27,3.19-10.23,8-12.9m112.37,87.13c-3.48.75-7.27,1.92-9.14,4.98-3.25,4.24-2.32,9.65-2.45,14.52.16,40.72.05,81.45.03,122.15-.3,5.31,3.52,9.89,7.91,12.92,13.04,1.06,26.19.12,39.28.42,55.64-.03,111.26.07,166.9-.03,18.66-1.94,37.98-4.19,54.35-13.35,16.87-6.99,27.53-22.14,33.26-37.81,4.32-12.68,2.83-26.08,2.9-39.15-1.23-9.27-4.44-18.39-9.01-26.72-13.08-20.7-38.26-32.11-63.26-35.47-9.83-2.28-20.04-.4-29.91-2.28-7.54-1.35-15.23-.68-22.83-.75-53.83-.05-107.65.05-161.46-.07-2.23.01-4.42.21-6.58.63m-3.65,244.25c-5.4,1.09-8.14,6.34-7.85,11.09-.04,47.98.03,95.95-.04,143.92.07,6.11-.65,12.48,1.92,18.29,1.29,4.1,6.73,5.03,10.76,5.12,68.91.09,137.84-.07,206.78.09,9.11.42,18.01-1.74,27.08-2.13,23.23-2.68,47.08-8.85,64.99-23.41,14.13-13.13,21.04-31.52,22.56-49.69,1.81-9,2.23-18.22.22-27.22-1.76-20.38-9.48-42.13-27.8-54.86-22.16-15.78-50.89-19.43-77.94-21.77-68.92.02-137.85.02-206.77,0-4.64.1-9.36-.35-13.91.57h0Zm440.64-319.16c-3.28-6.12,3.21-13.49,10.27-12.73,33.87-.02,67.77.15,101.66-.07,3.94-.18,8.29.33,10.39,3.88,8.03,11.38,14.53,23.64,20.98,35.84,4.08,7.8,9.3,15.03,13.39,22.82,7.52,15.04,17.27,29.01,24.72,44.08,9.97,15.64,17.86,32.31,27.84,47.94,8.56,16.9,19.31,32.73,27.76,49.67,7.35,11.85,14.02,24.01,20.68,36.21,8.45,12.63,14.36,26.49,22.71,39.18,5.82,9.34,10.14,19.39,16.16,28.62,7.64,11.7,12.98,24.51,20.62,36.19,7.56,11.72,12.7,24.63,20.84,36.02,3.65,6.32,15.58,6.34,19.24,0,8.11-11.41,13.25-24.31,20.82-36.02,6.75-10.24,11.5-21.47,18.14-31.77,7.62-11.71,12.98-24.51,20.62-36.22,7.54-12.17,13.42-25.17,21.38-37.13,9.29-17.95,20.49-34.97,29.65-52.97,7.51-11.76,13.83-24.09,20.69-36.17,8.02-11.93,13.56-25.06,21.42-37.06,6.78-10.74,11.75-22.34,18.63-33.03,6.96-10.61,11.83-22.23,18.8-32.84,9.32-14.47,15.34-30.77,26.37-44.3,2.5-3.57,7.41-2.76,11.37-2.96,33.28.29,66.57.05,99.85.08,4.52-.47,8.33,2.31,10.47,5.78,2.12,5.77-2.43,11.02-5.3,15.78-105.81,182.4-211.33,364.94-317.11,547.36-6.06,10.42-11.17,21.75-20.55,30.1h-7.98c-12.02-6.94-16.07-20.48-22.94-31.22-107.23-184.99-214.24-370.14-321.58-555.06h0Z"/>
</svg>