<?xml version="1.0" encoding="UTF-8"?>
<svg id="Capa_1" data-name="Capa 1" xmlns="http://www.w3.org/2000/svg" viewBox="0 0 2500 859">
  <defs>
    <style>
      .cls-1 {
        fill: #f96a53;
      }

      .cls-1, .cls-2 {
        stroke-width: 0px;
      }

      .cls-2 {
        fill: #004192;
      }
    </style>
  </defs>
  <path class="cls-2" d="m855.89,415.75c61.06,20.35,95.71,55.56,100.11,116.61,4.95,67.66-24.2,118.26-78.66,155.67-31.35,22-67.11,35.2-104.51,41.8-70.96,13.2-142.46,13.75-213.42,2.2-71.51-11.55-102.86-55.01-87.46-126.51,31.9-147.41,66.01-294.83,99.56-441.69,2.75-11.55,6.05-20.35,20.9-21.45,80.31-7.15,160.07-19.25,240.92-5.5,29.7,4.95,58.31,12.1,84.71,25.3,91.31,45.1,100.66,154.02,19.8,215.07-23.1,17.05-48.95,28.05-81.96,38.5h0Zm-210.12,56.11c-10.45,47.85-20.35,91.86-30.25,135.31-3.85,16.5-1.65,29.7,18.15,30.8,46.2,2.2,92.41,0,133.66-24.2,31.35-18.15,44.55-46.75,40.15-83.06-4.4-34.65-29.15-48.4-59.41-57.76-33.55-9.9-66.01,6.6-102.31-1.1h0Zm101.76-240.37c-14.3,9.35-41.25-13.2-50.06,16.5-9.35,33-15.95,67.11-23.65,101.21-2.75,11.55,1.1,22,13.75,22.55,49.5,2.75,99.01,3.3,139.16-31.9,39.05-34.1,26.95-86.91-22.55-102.86-17.6-4.95-35.75-4.95-56.66-5.5h0Zm1302.53,8.25c-28.05-77.01-99.01-95.16-171.62-102.31-67.11-6.6-134.76-3.3-201.87,4.4-23.1,2.75-34.65,11.55-40.15,35.75-39.6,180.42-80.86,360.84-121.01,541.25-1.65,6.6-4.95,13.75,3.85,22h52.81c67.11,0,86.91-15.95,101.76-80.86,8.8-38.5,17.6-77.56,25.85-114.96,13.75-4.95,24.75-1.1,35.75-.55,96.81,3.3,188.67-12.65,259.63-85.26,60.51-61.61,85.81-136.41,55.01-219.47h0Zm-121.01,96.26c-13.2,62.71-67.11,101.76-141.36,102.31-48.4,0-52.81-5.5-42.35-54.46,8.8-40.15,18.15-79.76,25.3-119.91,3.3-19.8,13.2-27.5,32.45-27.5,20.35-.55,40.7-1.65,61.06,2.2,52.81,9.9,75.91,44.55,64.91,97.36h0Zm-421.89-188.12c-127.06-46.2-249.17-37.95-354.24,52.81-100.66,86.91-132.56,202.42-119.91,332.23,7.15,74.26,38.5,136.41,105.06,174.37,84.71,48.4,175.47,50.06,266.78,23.1,20.35-6.05,35.75-20.35,41.25-41.8,8.25-32.45,15.4-64.91,23.65-101.76-28.6,15.4-51.71,29.7-78.11,37.95-83.06,25.85-166.12-6.05-195.27-75.36-40.15-95.71,17.05-246.42,112.21-290.43,78.11-35.75,153.47-19.8,228.82,22,4.4-16.5,8.8-31.35,12.65-46.2,11-45.65,1.65-70.41-42.9-86.91h0Z"/>
  <path class="cls-1" d="m231.02,192.98c74.81,37.95,134.76,92.41,178.77,162.82,26.95,43.45,23.65,91.31-6.6,133.11-62.16,86.91-144.66,150.72-240.37,194.72C98.46,713.33,27.5,678.67,0,608.82c38.5-20.35,77.01-41.25,112.21-67.11,52.81-38.5,98.46-83.06,121.01-146.31,30.8-67.66,33.55-135.31-2.2-202.42h0Zm2062.71,0c74.81,37.4,134.76,92.96,179.32,162.82,26.95,42.35,24.75,89.11-4.4,130.36-62.71,89.11-146.86,154.02-244.77,198.57-63.81,28.6-133.11-6.6-160.07-74.81,36.3-19.8,73.16-39.6,106.71-64.36,54.46-39.6,102.86-84.71,125.96-150.17,31.35-68.21,33.55-135.86-2.75-202.42h0Z"/>
  <path class="cls-2" d="m231.02,192.98c35.75,67.11,32.45,134.21,1.65,201.87-46.75-50.61-105.06-85.26-166.67-112.76,32.45-87.46,106.16-125.96,165.02-89.11h0Zm2062.71,0c36.3,67.11,34.1,134.21,2.2,202.42-46.2-50.61-103.96-84.71-168.87-113.86,21.45-48.4,52.26-83.61,100.66-101.76,24.75-9.9,46.2-2.75,66.01,13.2h0Z"/>
</svg>