<?xml version="1.0" encoding="UTF-8"?>
<svg id="Capa_1" data-name="Capa 1" xmlns="http://www.w3.org/2000/svg" viewBox="0 0 2500 859">
  <defs>
    <style>
      .cls-1 {
        fill: #2d4f9e;
      }

      .cls-1, .cls-2, .cls-3, .cls-4 {
        stroke-width: 0px;
      }

      .cls-3 {
        fill: none;
      }

      .cls-4 {
        fill: #fff;
      }
    </style>
  </defs>
  <path class="cls-2" d="m1133.51,245.56c1.19-4.09,2.38-8.47,19.35-8.47,52.66,0,62.76,35.94,62.76,65.46,0,17.82-9.82,107.82-103.52,107.82-13.98,0-21.13-1.75-21.13-11.39,0-4.68,3.87-17.54,6.54-27.18l36-126.23Zm-54.42-12.57c15.17,1.17,22.91,2.64,22.91,12.57,0,5.85-2.38,14.9-3.27,18.12l-36.58,129.16c-5.05,18.12-9.52,18.99-24.1,21.61v4.68h75.26c87.46,0,135.35-54.06,135.35-113.08,0-30.68-18.44-77.73-86.86-77.73h-82.7v4.67h-.01Zm231.13,156.05c-11.6,17.24-24.69,33.31-41.35,33.31-13.98,0-13.98-12.86-13.98-18.12,0-13.73,23.49-86.21,23.49-94.38,0-6.13-2.38-7.6-18.74-7.6v-4.68c11.31-.58,36-5.26,47.59-7.3l.89.58-26.18,94.09c-1.19,4.09-4.76,15.78-4.76,19.29,0,2.04,2.08,4.38,4.76,4.38,3.57,0,12.2-5.85,24.4-22.8l3.87,3.23h0Zm-5.94-130.04c-7.43,0-14.28-4.98-14.28-15.2s6.85-15.78,13.98-15.78c9.82,0,14.87,9.64,14.87,16.07,0,5.84-4.76,14.9-14.57,14.9h0Zm144.87,129.74c-14.87,19.58-25.29,33.02-41.35,33.02-13.69,0-14.28-8.77-14.28-17.24,0-7.01,22.02-78.31,22.02-90,0-5.26-1.78-9.35-7.43-9.35-14.28,0-33.02,25.14-43.73,41.49-13.68,20.16-17.55,32.73-29.74,72.46h-22.3c9.21-33.02,29.15-101.39,29.15-107.54,0-4.38-2.97-7.6-19.03-7.6v-4.68c16.06-2.92,32.12-5.84,48.19-9.05l.89.58-19.04,61.07.59.58c13.98-21.63,41.35-62.24,66.03-62.24,13.69,0,20.52,7.01,20.52,19.29s-23.8,84.74-23.8,93.51c0,4.38,4.16,4.98,4.76,4.98,5.96,0,13.39-9.35,24.4-23.09l4.15,3.82h0Zm38.08-43.25c11.01-26.01,31.23-48.5,47.3-48.5,7.43,0,10.41,5.55,10.41,11.69,0,2.34-1.48,37.4-62.76,49.68l5.05-12.87h0Zm61.27,41.79c-14.87,11.98-27.37,21.92-43.43,21.92-12.5,0-27.96-6.72-27.96-26.6,0-5.85,1.49-11.69,2.97-17.82l8.32-1.17c48.19-6.72,76.15-30.39,76.15-53.47,0-12.86-9.23-19.88-24.4-19.88-41.94,0-88.94,49.09-88.94,90.87,0,18.41,9.52,41.19,40.76,41.19s56.82-26.88,60.09-31.56l-3.57-3.48h0Zm18.15,31.85l24.1-85.32c2.97-10.81,4.75-20.74,4.75-23.37,0-4.09-1.48-8.76-10.71-8.76-3.27,0-6.54.87-9.82,1.45v-4.96c15.17-2.04,32.72-5.85,46.11-7.89l.89.58-14.57,58.15.59.58,2.38-5.85c9.82-19.29,32.44-53.47,51.17-53.47,6.85,0,14.28,4.38,14.28,14.31,0,15.2-10.71,15.2-13.98,15.2-12.79,0-8.32-10.52-15.47-10.52-9.21,0-27.07,32.44-29.45,36.82-11.31,21.03-15.47,34.19-27.67,73.05h-22.6Zm93.99-42.66c2.08,12.86,6.85,39.74,30.94,39.74,16.65,0,21.41-14.03,21.41-23.67,0-19.29-35.39-47.34-35.39-69.84,0-9.05,4.16-32.44,35.69-32.44,13.39,0,19.33,4.98,28.26,4.98,5.07,0,6.85-2.92,8.32-5.27h4.16l-5.96,40.63h-4.76c-1.48-16.66-8.63-33.61-27.96-33.61-6.54,0-16.06,2.62-16.06,16.95,0,18.41,36.28,44.42,36.28,69.25,0,31.85-27.67,39.16-44.32,39.16-8.93,0-20.82-5.55-29.45-5.55-4.16,0-5.35,2.92-7.13,6.15h-4.76l5.96-46.47h4.77Zm339.43-94.09c-.59-8.18-3.27-47.34-45.81-47.34-59.49,0-89.84,70.71-89.84,113.67,0,38.29,16.36,62.54,51.77,62.54s54.44-20.75,68.72-34.48l5.05,4.09c-11.01,12.86-37.49,43.53-80.92,43.53-34.52,0-77.93-20.46-77.93-78.89s52.64-120.97,120.77-120.97c21.41,0,39.57,7.01,46.4,7.01,8.63,0,10.41-3.51,11.9-6.43h6.24l-11.01,58.15-5.34-.87h0Zm54.73,103.43c-15.17,22.5-26.78,36.53-45.22,36.53-13.09,0-14.28-9.94-14.28-18.12,0-6.15,43.14-158.67,43.14-164.8,0-7.59-12.5-7.59-20.24-7.3v-4.68c15.47-1.75,30.94-4.38,46.4-7.88l1.49,1.45-44.92,169.19c-.59,2.64-2.97,10.52-2.97,13.73,0,1.75,0,5.85,4.46,5.85,7.43,0,13.69-8.18,28.26-26.6l3.87,2.64h0Zm137.44,1.76c-18.74,26.59-26.48,34.19-41.35,34.19-13.39,0-13.98-10.81-13.98-15.2,0-5.26,5.96-29.8,12.79-53.77h-.89c-20.24,33.02-42.24,69.54-69.02,69.54-10.71,0-16.36-4.38-16.36-17.24s22.6-86.5,22.6-94.38c0-8.47-5.65-8.47-17.84-8.47v-4.08c15.02-1.78,29.91-4.42,44.62-7.89l.89.58-27.08,106.07c-.89,3.79,0,9.93,6.26,9.93,12.79,0,31.53-27.46,41.65-42.66,14.58-21.63,21.13-40.04,32.72-71.31h22.02l-23.49,87.38c-1.78,5.85-5.65,18.71-5.65,23.09,0,1.45.29,4.68,3.57,4.68,5.65,0,13.98-10.23,24.4-23.09l4.15,2.64h0Zm107.99-58.15c0,24.54-28.26,86.21-69.02,86.21-13.98,0-13.98-7.6-13.98-9.64,0-30.68,28.56-101.4,61.28-101.4,18.74,0,21.71,15.79,21.71,24.84Zm-82.7-98.18c17.25.3,19.33,1.75,19.33,8.47,0,4.09-2.67,11.39-4.75,19.58l-40.46,146.39v1.17c0,6.43,22.91,15.49,38.68,15.49,45.51,0,95.18-50.55,95.18-96.72,0-21.33-14.57-35.36-35.39-35.36-26.77,0-45.51,27.18-55.33,42.36l-.59-.28c10.12-33.03,23.8-87.38,30.34-111.33l-1.48-1.45c-15.47,2.92-30.64,4.96-45.51,6.72v4.95h-.03Zm-1179.38,410.9c14.58-2.64,19.04-3.51,24.1-21.63l36.58-129.16c1.78-5.85,3.27-12.86,3.27-18.12,0-10.22-8.02-11.1-20.82-12.56v-4.68h73.48v4.68c-14.57,2.64-19.33,3.21-24.4,21.63l-36.58,129.44c-1.78,5.85-3.27,11.69-3.27,18.71,0,9.35,7.43,10.23,20.24,11.69v4.68h-72.59v-4.68Z"/>
  <path class="cls-2" d="m1253.8,616.43c-14.88,19.58-25.29,33.03-41.36,33.03-13.68,0-14.28-8.77-14.28-17.24,0-7.01,22.02-78.31,22.02-90,0-5.26-1.78-9.35-7.43-9.35-14.28,0-33.02,25.14-43.73,41.49-13.69,20.16-17.55,32.72-29.75,72.46h-22.3c9.21-33.02,29.15-101.4,29.15-107.54,0-4.38-2.97-7.6-19.03-7.6v-4.68c16.06-2.92,32.12-5.85,48.19-9.06l.89.59-19.03,61.07.59.59c13.98-21.63,41.35-62.24,66.03-62.24,13.69,0,20.54,7.02,20.54,19.3s-23.8,84.74-23.8,93.51c0,4.38,4.16,4.96,4.76,4.96,5.96,0,13.39-9.35,24.38-23.08l4.16,3.78h0Zm79.42-85.33h-24.99l-26.18,97.3c-.3.87-.3,1.45-.3,2.34,0,2.62,1.48,4.96,4.76,4.96,5.96,0,16.36-13.73,23.8-23.08l3.86,2.04c-15.17,22.5-26.77,35.36-42.24,35.36-5.96,0-14.28-2.92-14.28-11.69,0-4.38,5.65-22.2,6.85-26.88l21.41-80.36h-22.02c-.29-1.75-.29-3.21.6-4.68,1.78-2.64,10.1-4.68,15.17-7.3,9.82-4.98,24.1-18.12,32.42-28.35,1.19-1.45,2.38-4.09,5.05-3.5,2.08-.59,2.68,2.04,2.08,4.38l-8.32,30.1h23.8l-1.48,9.35h0Zm26.47,42.08c11.01-26.01,31.24-48.51,47.3-48.51,7.43,0,10.42,5.55,10.42,11.69,0,2.34-1.49,37.4-62.76,49.68l5.04-12.86Zm61.28,41.79c-14.87,11.98-27.37,21.91-43.43,21.91-12.5,0-27.96-6.72-27.96-26.59,0-5.85,1.48-11.69,2.97-17.82l8.32-1.17c48.19-6.72,76.15-30.39,76.15-53.49,0-12.86-9.23-19.88-24.4-19.88-41.94,0-88.95,49.09-88.95,90.87,0,18.41,9.52,41.19,40.76,41.19s56.82-26.88,60.09-31.55l-3.56-3.48h0Zm24.1,31.85l24.1-85.32c2.97-10.81,4.76-20.75,4.76-23.37,0-4.09-1.49-8.77-10.71-8.77-3.27,0-6.54.87-9.82,1.47v-4.98c15.17-2.04,32.72-5.85,46.11-7.89l.89.59-14.57,58.15.59.58,2.38-5.85c9.82-19.29,32.42-53.49,51.17-53.49,6.85,0,14.28,4.38,14.28,14.32,0,15.2-10.71,15.2-13.98,15.2-12.79,0-8.32-10.52-15.46-10.52-9.23,0-27.08,32.44-29.45,36.82-11.31,21.03-15.47,34.19-27.67,73.05h-22.63Z"/>
  <path class="cls-2" d="m1673.53,616.43c-14.87,19.58-25.29,33.03-41.35,33.03-13.69,0-14.28-8.77-14.28-17.24,0-7.01,22.02-78.31,22.02-90,0-5.26-1.78-9.35-7.43-9.35-14.27,0-33.02,25.14-43.73,41.49-13.68,20.16-17.55,32.72-29.75,72.46h-22.3c9.23-33.02,29.15-101.4,29.15-107.54,0-4.38-2.97-7.6-19.04-7.6v-4.68c16.06-2.92,32.13-5.85,48.19-9.06l.89.59-19.04,61.07.59.59c13.98-21.63,41.35-62.24,66.05-62.24,13.69,0,20.52,7.02,20.52,19.3s-23.8,84.74-23.8,93.51c0,4.38,4.16,4.96,4.76,4.96,5.96,0,13.39-9.35,24.4-23.08l4.16,3.78h0Z"/>
  <path class="cls-2" d="m1696.44,614.96c0-26.31,26.78-90.58,61.58-90.58,8.63,0,16.96,5.55,16.96,19.58,0,28.63-29.15,91.75-60.69,91.75-8.04,0-17.85-5.26-17.85-20.75Zm107.99-.3c-13.39,12.86-19.35,20.17-23.8,20.17-2.38,0-4.16-1.75-4.16-3.81,0-9.05,27.37-108.71,28.26-112.2l-2.08-.87-18.14,2.04-.89.87-2.97,12.87h-.59c-.89-8.19-10.71-15.79-23.49-15.79-39.57,0-85.08,54.64-85.08,97.6,0,8.47.89,34.47,30.64,34.47,17.85,0,33.61-8.77,58.3-44.41l.59.58c-4.76,17.82-6.24,24.25-6.24,30.97,0,4.96,0,12.56,12.5,12.56s22.91-10.52,40.76-32.14l-3.6-2.92Zm88.35-83.57h-24.99l-26.18,97.3c-.3.87-.3,1.45-.3,2.34,0,2.62,1.49,4.96,4.76,4.96,5.96,0,16.36-13.73,23.8-23.08l3.86,2.04c-15.17,22.5-26.77,35.36-42.24,35.36-5.96,0-14.28-2.92-14.28-11.69,0-4.38,5.65-22.2,6.85-26.88l21.41-80.36h-22.02c-.29-1.75-.29-3.21.6-4.68,1.78-2.64,10.1-4.68,15.17-7.3,9.82-4.98,24.1-18.12,32.42-28.35,1.19-1.45,2.38-4.09,5.07-3.5,2.08-.59,2.67,2.04,2.08,4.38l-8.32,30.1h23.8l-1.49,9.35h0Zm57.12,85.63c-11.61,17.24-24.69,33.31-41.35,33.31-13.98,0-13.98-12.86-13.98-18.12,0-13.73,23.49-86.19,23.49-94.38,0-6.15-2.38-7.6-18.74-7.6v-4.68c11.3-.58,35.98-5.26,47.59-7.3l.89.59-26.18,94.09c-1.19,4.09-4.76,15.78-4.76,19.29,0,2.04,2.08,4.38,4.76,4.38,3.57,0,12.2-5.85,24.38-22.8l3.89,3.21h0Zm-5.96-130.04c-7.43,0-14.28-4.96-14.28-15.2s6.85-15.78,13.98-15.78c9.82,0,14.87,9.64,14.87,16.07.01,5.84-4.75,14.9-14.57,14.9h0Zm103.23,37.4c14.27,0,20.82,12.86,20.82,28.05,0,31.27-23.49,91.75-57.41,91.75-14.87,0-23.8-10.52-23.8-27.18-.01-34.47,27.05-92.62,60.38-92.62Zm2.08-6.15c-43.43,0-87.46,47.06-87.46,90,0,24.25,13.39,42.07,44.92,42.07,45.51,0,86.27-52.88,86.27-88.83-.01-19.27-9.23-43.24-43.73-43.24Z"/>
  <path class="cls-2" d="m2222.68,616.43c-14.87,19.58-25.29,33.03-41.35,33.03-13.69,0-14.28-8.77-14.28-17.24,0-7.01,22.02-78.31,22.02-90,0-5.26-1.78-9.35-7.43-9.35-14.28,0-33.02,25.14-43.73,41.49-13.69,20.16-17.55,32.72-29.75,72.46h-22.3c9.23-33.02,29.15-101.4,29.15-107.54,0-4.38-2.97-7.6-19.05-7.6v-4.68c16.06-2.92,32.13-5.85,48.19-9.06l.89.59-19.05,61.07.59.59c13.98-21.63,41.35-62.24,66.05-62.24,13.69,0,20.52,7.02,20.52,19.3s-23.8,84.74-23.8,93.51c0,4.38,4.16,4.96,4.76,4.96,5.96,0,13.39-9.35,24.4-23.08l4.16,3.78h0Zm28.85-1.47c0-26.31,26.78-90.58,61.58-90.58,8.63,0,16.95,5.55,16.95,19.58,0,28.63-29.15,91.75-60.68,91.75-8.04,0-17.85-5.26-17.85-20.75Zm107.99-.3c-13.39,12.86-19.35,20.17-23.8,20.17-2.38,0-4.16-1.75-4.16-3.81,0-9.05,27.37-108.71,28.26-112.2l-2.08-.87-18.16,2.04-.89.87-2.97,12.87h-.59c-.89-8.19-10.71-15.79-23.49-15.79-39.57,0-85.08,54.64-85.08,97.6,0,8.47.89,34.47,30.64,34.47,17.84,0,33.61-8.77,58.3-44.41l.59.58c-4.76,17.82-6.24,24.25-6.24,30.97,0,4.96,0,12.56,12.49,12.56s22.91-10.52,40.76-32.14l-3.57-2.92Zm67.53-1.17c-15.17,22.5-26.77,36.53-45.21,36.53-13.09,0-14.28-9.93-14.28-18.12,0-6.13,43.13-158.67,43.13-164.8,0-7.6-12.5-7.6-20.24-7.3v-4.68c15.61-1.77,31.11-4.41,46.41-7.89l1.48,1.47-44.92,169.19c-.59,2.62-2.97,10.52-2.97,13.73,0,1.75,0,5.85,4.46,5.85,7.43,0,13.68-8.18,28.26-26.59l3.87,2.62h0Zm41.72-159.68h3.05c2.83,0,5.13,1.39,5.13,5.55,0,3.87-1.41,6.64-5.07,6.64h-3.12v-12.2h0Zm-8.32-.3c3.64.36,3.57.3,3.57,3.51v17.46c0,3.13.07,3.13-3.57,3.51v1.09h11.9v-1.09c-3.71-.36-3.57-.36-3.57-3.51v-7.15h3.49c4.68,6.79,6.54,11.75,8.93,11.75h4.68v-.66c-1.42-1.02-3.64-3.5-5.57-6.13l-4.24-5.7c3.35-1.09,5.87-3.87,5.87-7.59,0-4.53-4.09-6.58-8.48-6.58h-13.02v1.09h.01Zm37.04,12.64c0-13.81-10.93-25.06-25.07-25.06-13.97-.04-25.32,11.05-25.36,24.77,0,.09,0,.19,0,.28,0,13.8,11.09,24.91,25.36,24.91s25.07-11.11,25.07-24.91Zm-4.09,0c0,11.61-9.3,21.84-20.98,21.84s-21.26-10.23-21.26-21.84,9.3-21.99,21.26-21.99,20.98,10.3,20.98,21.99Z"/>
  <g>
    <path class="cls-1" d="m668.52,723.83c170.17.82,309.72-136.26,308.53-303.06,1.18-171.35-138.35-308.42-308.53-308.37h-340.99c-172.21-.04-311.76,137.02-313.95,308.37,2.19,166.79,141.73,303.86,313.93,303.06h341Z"/>
    <path class="cls-4" d="m35.24,420.77c1.7-159.87,131.75-287.63,292.29-287.09,160.36-.54,290.43,127.23,292.27,287.1-1.85,155.32-131.92,283.08-292.27,281.78-160.53,1.3-290.59-126.47-292.29-281.79Z"/>
    <path class="cls-1" d="m262.56,250.65c-67.27,29.82-117.73,93.56-119.08,170.13,1.34,73.69,49.4,138.59,119.08,164.81V250.65Zm129.91,334.96c69.51-26.23,117.56-91.14,119.08-164.81-1.52-78.22-49.58-143.14-119.08-170.13v334.94Z"/>
  </g>
  <path class="cls-3" d="m-64.04-877.67h2639.13V1714.67H-64.04V-877.67Z"/>
</svg>