<?xml version="1.0" encoding="UTF-8"?>
<svg id="Capa_1" data-name="Capa 1" xmlns="http://www.w3.org/2000/svg" viewBox="0 0 2500 859">
  <defs>
    <style>
      .cls-1 {
        fill: #00a24f;
      }

      .cls-1, .cls-2 {
        stroke-width: 0px;
      }

      .cls-2 {
        fill: #0060a9;
      }
    </style>
  </defs>
  <path class="cls-1" d="m1231.89,287.52c-71.59,0-121.95,75.58-122.37,197.48,0,111.54,60.77,180.41,122.79,180.41,37.04,0,59.94-8.53,73.26-24.38v-61.56c-19.25,12.52-40.13,18.76-61.18,18.29-38.29,0-69.09-30.48-74.09-79.24l-.42-4.27h44.54c42.04,0,71.59-5.49,90.32-18.89s26.64-34.13,26.64-67.05c0-87.16-47.87-140.8-99.48-140.8m29.14,160.3c-11.65,6.1-29.97,8.53-60.35,8.53h-31.22v-4.27l.42-12.19c1.25-43.88,23.72-82.89,56.19-82.89,12.96-.9,25.78,4.22,36.63,14.63,9.4,10.56,14.68,27.17,14.15,44.49.42,14.63-4.16,25.6-15.82,31.69m101.14-19.5v231h58.69v-213.94c0-28.65,3.75-49.37,12.07-63.39,8.32-14.02,19.98-19.5,34.55-19.5,5.3-.07,10.59.54,15.82,1.83v-68.26c-9.22-6.4-19.35-9.54-29.55-9.14-65.76.61-91.57,68.87-91.57,141.41m-712.16,231V194.27h-58.27v465.05h58.27Zm157.75-371.8c-78.25,0-111.96,78.02-112.38,154.81v216.98h58.27v-210.89c-.63-22.93,4.06-45.49,13.32-64,8.8-15.15,21.8-23.66,35.38-23.16,16.65,0,30.38,7.31,39.96,22.55s14.15,39.62,14.15,71.31v204.18h58.27v-212.11c0-103.01-48.28-159.69-106.97-159.69m209.78-93.25h-57.85v335.84c.42,85.33,29.55,135.31,92.82,135.92,27.05,0,42.87-12.8,49.53-33.52v-53.03c-10.41,6.7-24.56,9.75-42.04,9.75-13.32,0-24.14-4.88-31.63-16.46-7.49-11.58-11.24-29.26-11.24-54.25v-157.25h50.78c24.97,0,35.38-23.16,35.38-40.23v-34.13h-85.74v-92.65Zm1105.07,93.25c-78.25,0-111.96,78.02-112.38,154.81l.42,216.98h57.85v-210.89c0-27.43,4.99-48.76,13.32-64,8.8-15.15,21.8-23.66,35.38-23.16,16.65,0,30.38,7.31,39.96,23.16s14.15,39.01,14.15,70.7v204.19h57.85v-212.11c.42-103.01-47.45-159.69-106.55-159.69m-484.9,0c-32.88,0-53.28,28.65-65.35,54.86l-4.58,9.75v-157.86h-57.85v288.3c0,122.51,50.36,183.46,115.71,183.46,74.5,0,121.54-85.94,121.54-195.65s-47.45-182.85-109.47-182.85m-5.41,305.97c-19.15,0-36.21-7.92-47.45-28.65-11.24-20.72-16.65-52.42-16.65-95.69,0-59.12,24.56-107.27,57.85-107.88,19.56,0,35.38,7.92,46.2,28.04s16.23,50.59,16.23,96.3c-.42,61.56-23.31,107.88-56.19,107.88m234.33-305.97c-35.38,0-58.69,14.02-74.92,32.3v59.73c20.4-14.2,42.76-21.29,65.35-20.72,19.15,0,35.8,4.27,45.37,15.24s14.15,29.87,14.15,56.68v8.53h-24.97c-93.23.61-124.03,48.76-124.03,112.76s39.96,113.98,99.48,113.98h12.9c55.36,0,93.65-52.42,93.65-129.22v-85.33c.42-129.83-50.78-163.35-106.97-163.96m50.78,249.9c0,19.5-3.33,34.74-10.82,45.71-7.49,10.97-18.31,15.24-32.47,15.24-12,.9-23.9-3.56-34.13-12.8-8.23-8.45-12.94-22.47-12.49-37.18-.75-15.73,4.76-30.68,14.15-38.4,9.99-8.53,26.22-12.19,50.36-12.19h25.39v39.62Zm478.24-70.7l-1.25-2.44,1.25-2.44c25.39-46.93,80.75-138.36,101.14-165.79h-32.05c-20.39,0-34.13,3.05-48.7,23.16-29.14,40.23-53.28,87.77-77.83,134.09l-4.58,9.14.42-268.18h-58.69v464.44h58.69v-188.34l4.58,9.14c27.89,54.25,56.19,109.1,88.66,157.86,10.86,14.96,25.06,23.62,39.96,24.38,16.23,0,25.39-6.1,31.63-17.07-16.65-28.65-83.24-142.62-103.22-177.98"/>
  <path class="cls-2" d="m61.48,94.31c-33.4.33-60.35,40.08-60.35,88.99v575.38h393.33c33.54-.07,60.72-39.87,60.77-88.99V94.31H61.48Zm287.61,479.68l-241.82,64v-357.17l241.82-64v357.17Z"/>
</svg>