<?xml version="1.0" encoding="UTF-8"?>
<svg id="Capa_1" data-name="Capa 1" xmlns="http://www.w3.org/2000/svg" viewBox="0 0 2500 859">
  <defs>
    <style>
      .cls-1 {
        fill: #1b3771;
      }

      .cls-1, .cls-2, .cls-3, .cls-4 {
        fill-rule: evenodd;
        stroke-width: 0px;
      }

      .cls-2 {
        fill: #cc2131;
      }

      .cls-3 {
        fill: #e9b040;
      }

      .cls-4 {
        fill: #fff;
      }
    </style>
  </defs>
  <path class="cls-1" d="m1.13,859h2498.87V0H1.13v859h0Z"/>
  <path class="cls-3" d="m1248.56,703.94c120.18,59.71,281.8,96.09,456.77,96.09,376.63,0,681.13-165.98,681.13-371.27S2081.97,57.5,1705.33,57.5c-174.98,0-336.57,36.4-456.77,96.09-137.57,68.42-224.38,165.97-224.38,275.17s86.81,207.49,224.38,275.18h0Z"/>
  <path class="cls-3" d="m2295.64,635.51c0-6.55,9.33-11.65,22.7-11.65,12.02,0,21.37,5.1,21.37,11.65s-9.35,12.38-21.37,12.38c-12.44.06-22.6-5.39-22.7-12.17,0-.07,0-.13,0-.2Zm22.7,9.46c7.99,0,16.03-4.36,16.03-9.46s-8.02-8.74-16.03-8.74c-9.35,0-17.36,3.64-17.36,8.74s8.01,9.46,17.36,9.46Zm-4.01-3.63h-4.01v-10.92h8.02c1.33,0,4.01,0,5.34.73,1.33.74,2.66,1.46,2.66,2.19,0,1.46-1.33,2.91-3.98,2.91l3.98,5.1h-5.34l-2.66-4.37h-4.01v4.37h0Zm0-6.55h5.34c1.33,0,1.33-.74,1.33-1.46,0,0,0-.73-1.33-.73h-5.34v2.19h0Z"/>
  <path class="cls-2" d="m1468.91,389.46c-2.71-13.21-6.72-26.33-12.02-39.3h-416.69c5.43-13.28,12.12-26.41,20.04-39.31h376.63c-8.19-13.34-17.55-26.46-28.05-39.31h-320.55c12.33-13.41,25.69-26.52,40.07-39.31h240.4c-14.93-14.01-32.37-27.18-52.07-39.3h-136.24c20.04-13.84,44.08-26.94,68.11-39.3-120.2-59.7-280.48-96.09-456.77-96.09-376.63,0-681.14,166.71-681.14,371.26s304.52,371.27,681.14,371.27c176.29,0,336.56-36.39,456.77-96.09,24.02-12.38,48.09-25.47,69.45-39.3h-137.57c-18.85-12.5-36.24-25.62-52.08-39.3h240.41c14.93-12.61,28.32-25.75,40.08-39.32h-320.55c-10.95-12.75-20.32-25.88-28.05-39.3h376.63c7.91-12.91,14.59-26.04,20.04-39.32,5.34-13.09,9.33-26.21,12.02-39.3,5.34-26.13,5.34-52.5,0-78.63h0Z"/>
  <path class="cls-4" d="m2295.64,514.67c0-6.55,9.33-11.65,22.7-11.65,12.02,0,21.37,5.1,21.37,11.65s-9.35,12.38-21.37,12.38c-12.43.06-22.59-5.38-22.7-12.16,0-.07,0-.14,0-.22Zm22.7,9.46c7.99,0,16.03-4.37,16.03-9.46s-8.02-8.74-16.03-8.74c-9.35,0-17.36,3.64-17.36,8.74s8.01,9.46,17.36,9.46Zm-4.01-3.64h-4.01v-10.92h8.02c1.33,0,4.01,0,5.34.73,1.33.74,2.66,1.46,2.66,2.19,0,1.46-1.33,2.91-3.98,2.91l3.98,5.1h-5.34l-2.66-4.37h-4.01v4.37h0Zm0-6.54h5.34c1.33,0,1.33-.74,1.33-1.46,0,0,0-.73-1.33-.73h-5.34v2.19h0Z"/>
  <path class="cls-1" d="m1017.5,535.78c-22.7,3.64-38.73,5.1-56.1,5.1-34.72,0-56.1-11.65-56.1-33.5,0-4.36,1.33-8.74,2.66-13.82l4-14.56,4.01-12.39,32.06-104.82h70.78l-8.01,23.29h44.08l-10.69,38.59h-44.06l-20.04,62.6c0,2.19-1.33,4.36-1.33,5.82,0,8.01,8.01,11.65,25.38,11.65,9.35,0,14.7-.73,22.7-1.46l-9.35,33.5h0Zm228.38-1.47c-24.61,4.31-50.29,6.52-76.14,6.57-78.8,0-125.54-23.3-125.54-68.44,0-52.41,54.76-91.72,129.55-91.72,60.11,0,98.83,21.84,98.83,56.05,0,10.92-2.66,21.85-9.33,37.85h-146.93v4.37c0,18.19,21.37,26.93,64.1,26.93,26.72,0,50.75-2.91,77.47-9.46l-12.02,37.84h0Zm-44.08-90.99v-7.27c0-12.38-13.35-19.65-34.72-19.65-24.04,0-40.07,9.46-46.74,26.93h81.46s0,0,0,0Zm-749.26,94.65h-73.46l42.75-144.87-94.83,144.87h-50.74l-5.34-144.14-45.42,144.14h-70.78l57.43-188.55h105.5l4.03,116.48,70.78-116.48h117.53l-57.44,188.55Zm177.64-68.44c-8.01,0-9.35-.73-14.7-.73-41.4,0-62.77,8.74-62.77,23.3,0,10.18,10.67,16.02,26.7,16.02,36.07,0,49.42-16.03,50.77-38.59h0Zm58.76,68.44h-64.1l1.33-16.02c-16.03,12.38-37.4,18.93-77.47,18.93-36.06,0-65.44-17.47-65.44-42.23,0-7.27,2.66-13.82,5.33-19.64,12.02-24.03,56.1-38.59,122.88-39.32,8.01,0,21.37,0,32.04.73,2.66-5.08,2.66-7.27,2.66-10.18,0-10.19-14.68-13.1-49.41-13.1-21.37,0-44.06,2.19-61.44,4.36l-9.34,2.19h-5.34l10.69-34.21c34.72-5.82,58.76-8.01,85.48-8.01,64.1,0,97.49,15.29,97.49,45.14,0,7.27,1.33,13.09-4.01,29.84l-14.68,54.6-2.66,9.46-2.66,8v5.1l-1.35,4.38h0Zm912.2-151.42c20.01,0,38.72,2.9,65.44,10.19l12.02-41.5c-6.68-1.45-8.02-1.45-17.36-3.64l-30.73-3.64c-9.35-1.45-20.04-2.18-33.38-2.18-36.07,0-57.44,0-80.13,8-12.02,3.64-26.72,9.46-44.06,19.66l-8.02-1.46-76.12,29.12,4.01-16.01h-78.81l-44.06,152.88h73.47l26.72-82.26s10.69-11.65,16.03-15.3c13.34-9.46,25.36-9.46,40.05-9.46h5.34c-1.33,8.74-2.68,18.93-2.68,29.12,0,50.23,52.1,81.54,132.23,81.54,20.04,0,37.4-1.46,64.1-5.82l13.34-42.96c-24.02,6.57-44.06,9.46-62.76,9.46-42.75,0-68.13-16.73-68.13-45.86,0-40.78,37.39-69.9,93.5-69.9h0Zm623.69-37.13l-16.03,53.87c-17.36-14.56-38.72-21.11-66.77-21.11-38.72,0-74.79,11.65-97.49,34.21l-46.76-15.29,4.01-16.01h-78.81l-45.4,152.88h74.79l24.02-82.26s18.71-11.65,24.05-15.3c10.69-7.27,22.7-9.46,32.06-9.46-8.87,14.56-13.38,29.8-13.36,45.15,0,38.58,37.4,64.05,90.82,64.05,26.72,0,48.09-5.08,68.13-17.46l-4.01,15.29h70.78l56.11-188.55h-76.14s0,0,0,0Zm-89.46,152.14c-25.38,0-37.4-9.46-37.4-29.84,0-29.84,22.7-51.68,57.41-51.68,25.38,0,38.75,10.92,38.75,30.58,0,29.84-24.05,50.95-58.76,50.95h0Zm-340.59-32.03c-7.99,0-9.33-.73-14.67-.73-41.41,0-62.79,8.74-62.79,23.3,0,10.18,10.69,16.02,26.72,16.02,36.06,0,49.41-16.03,50.74-38.59h0Zm58.76,68.44h-64.07l1.33-16.02c-16.03,12.38-37.4,18.93-77.48,18.93-36.04,0-68.1-16.75-68.1-42.23,1.33-36.39,50.74-58.97,130.87-58.97,8.02,0,21.37,0,32.06.73,2.68-5.08,2.68-7.27,2.68-10.18,0-10.19-14.7-13.1-49.43-13.1-21.37,0-45.4,2.19-61.42,4.36l-10.69,2.19h-4.01l10.69-34.21c34.74-5.82,58.76-8.01,85.48-8.01,64.1,0,97.49,15.29,97.49,45.14,0,7.27,1.33,13.09-4.01,29.84l-14.67,54.6-2.68,9.46-2.66,8-1.36,5.1v4.38Zm-1011.01-120.12c14.7,0,34.72.73,56.1,2.19l10.69-35.67c-21.37-1.45-49.41-2.91-66.77-2.91-81.48,0-109.51,24.02-109.51,52.41,0,18.19,16.02,32.03,54.75,41.49,30.71,8.01,36.06,9.48,36.06,16.02,0,9.46-16.03,15.29-45.41,15.29-21.36,0-41.4-2.19-65.45-5.82l-8.01,34.94h1.35l13.35,1.46c4,.73,10.69,1.45,18.69,1.45,18.69,1.45,33.38,1.45,42.73,1.45,81.48,0,116.2-16.73,116.2-50.95,0-21.1-18.69-33.48-56.1-42.22-30.71-8.01-34.72-8.74-34.72-16.02s13.35-13.1,36.06-13.1h0Z"/>
  <path class="cls-4" d="m1698.64,343.6l-12.05,40.76c-26.72-7.28-45.4-10.19-65.44-10.19-56.08,0-94.8,29.12-94.8,70.61,0,28.4,26.72,45.86,69.42,45.86,18.71,0,38.75-2.9,62.79-9.46l-13.34,42.96c-26.72,3.64-44.06,5.1-65.44,5.1-78.81,0-128.22-30.58-128.22-80.81,0-67.7,68.1-114.28,165.59-114.28,13.36,0,24.05.73,33.41,1.45l30.7,4.36c9.35,2.18,10.69,2.18,17.38,3.64h0Zm-236.39,28.39c-2.68-.73-5.34-.73-8.02-.73-24.02,0-37.4,6.55-60.09,24.75l6.68-23.3h-68.1l-44.09,153.6h73.47c26.72-93.91,33.38-109.93,69.45-109.93h5.34c6.68-18.2,14.7-32.03,28.05-44.41h-2.68s0,0,0,0Zm-426.06,152.14c-20.04,3.64-36.06,5.1-53.43,5.1-37.4,0-58.76-11.65-58.76-33.5,0-4.36,1.33-8.74,2.66-13.82l4-15.3,4.01-11.65,32.06-104.82h73.46l-8.01,22.56h37.4l-10.69,37.85h-37.39l-20.04,63.34c0,2.91-1.33,5.1-1.33,6.55,0,8.01,8.01,11.65,25.38,11.65,9.35,0,14.7-.73,20.04-1.46l-9.37,33.49h0Zm-284.48-102.64c0,18.92,17.36,32.75,56.1,42.22,30.71,8.01,34.72,10.2,34.72,17.47,0,9.46-13.35,13.84-42.75,13.84-21.37,0-41.4-2.19-65.45-6.55l-10.69,35.67h4.01l13.36,1.46c6.06,1,12.36,1.49,18.69,1.45,17.36.73,32.06,1.45,41.4,1.45,77.47,0,113.52-16.01,113.52-50.95,0-21.1-14.68-33.48-52.08-42.96-30.73-7.27-34.72-9.46-34.72-16.01,0-8.74,12.02-13.1,36.06-13.1,14.7,0,34.72,1.45,53.42,2.91l10.69-35.67c-18.69-1.45-48.09-2.91-65.44-2.91-82.8,0-110.85,23.3-110.85,51.69h0Zm1511.88,104.83h-70.78l3.98-15.29c-20.04,11.65-41.41,16.73-68.13,16.73-53.4,0-89.46-24.74-89.46-63.32,0-50.96,54.75-93.91,120.18-93.91,29.39,0,50.77,6.55,70.78,21.11l16.03-53.87h73.47l-56.08,188.55h0Zm-109.54-36.41c34.74,0,58.76-21.1,58.76-51.67,0-18.93-13.34-29.85-38.72-29.85-33.38,0-57.44,21.1-57.44,51.68,0,19.66,12.02,29.84,37.4,29.84Zm-892.16,32.77c-25.37,4.36-49.41,6.55-76.12,6.55-82.81,0-125.54-24.03-125.54-68.44,0-53.13,54.76-91.72,129.55-91.72,60.11,0,98.83,21.84,98.83,56.05,0,10.92-2.66,21.85-7.99,37.85h-146.91c-1.35,2.19-1.35,2.91-1.35,4.37,0,17.47,21.37,26.93,65.45,26.93,25.38,0,49.42-2.91,76.14-9.46l-12.05,37.86Zm-41.38-91.01v-8c0-12.38-12.03-19.65-34.72-19.65s-40.07,10.19-46.74,27.66h81.46,0Zm-749.26,94.65h-73.46l42.73-144.87-94.83,144.87h-50.74l-5.34-144.14-45.41,144.14h-68.11l57.43-188.55h105.5l4.01,116.48,70.79-116.48h114.86l-57.43,188.55h0Zm182.97-68.44c-8.02-.73-12.02-.73-17.36-.73-41.4,0-62.77,8.01-62.77,23.3,0,9.46,10.67,16.02,26.7,16.02,30.73,0,52.1-16.02,53.43-38.59h0Zm53.42,68.44h-61.44l1.35-16.02c-18.69,12.39-42.75,18.19-77.47,18.19-40.07,0-66.78-16.73-66.78-41.49,0-37.12,46.76-58.97,129.55-58.97,8.01,0,18.69,0,29.38.73,2.66-4.36,2.66-6.54,2.66-9.46,0-10.19-12.02-13.84-46.74-13.84-21.37,0-45.41,1.45-61.44,4.36l-10.69,1.45-6.68.73,10.69-34.21c37.39-5.82,61.42-8.01,88.14-8.01,64.1,0,97.49,15.29,97.49,44.41,0,8.01-1.35,13.83-6.69,30.58l-14.68,54.6-2.66,9.46-1.35,8-1.33,5.1-1.32,4.39h0Zm1111.2-68.44c-7.99-.73-12.02-.73-17.36-.73-41.41,0-62.79,8.01-62.79,23.3,0,9.46,10.69,16.02,26.72,16.02,29.38,0,52.1-16.02,53.43-38.59h0Zm53.42,68.44h-61.42l1.33-16.02c-18.71,12.39-44.06,18.19-77.48,18.19-40.05,0-68.1-16.73-68.1-41.49,0-37.12,48.09-58.97,130.87-58.97,7.99,0,18.71,0,29.37.73,2.68-4.36,2.68-6.54,2.68-9.46,0-10.19-12.02-13.84-46.76-13.84-21.37,0-45.4,1.45-61.42,4.36l-10.69,1.45-6.68.73,10.69-34.21c37.37-5.82,61.42-8.01,88.14-8.01,64.1,0,97.49,15.29,97.49,44.41,0,8.01-1.33,13.83-6.68,30.58l-14.7,54.6-2.66,9.46-2.68,8-1.33,5.1v4.39h.03,0Zm197.68-154.33c-1.36-.73-4.01-.73-6.7-.73-24.02,0-38.72,6.55-61.42,24.75l6.68-23.3h-66.77l-45.42,153.6h74.79c25.38-93.91,33.41-109.93,68.13-109.93h5.34c6.68-18.2,16.03-32.03,28.05-44.41h-2.66s0,0,0,0Z"/>
</svg>