<?xml version="1.0" encoding="UTF-8"?>
<svg id="Capa_1" data-name="Capa 1" xmlns="http://www.w3.org/2000/svg" viewBox="0 0 2500 859">
  <defs>
    <style>
      .cls-1 {
        fill: none;
      }

      .cls-1, .cls-2, .cls-3 {
        stroke-width: 0px;
      }

      .cls-2 {
        fill: #fff;
        fill-rule: evenodd;
      }

      .cls-3 {
        fill: #1434cb;
      }
    </style>
  </defs>
  <path class="cls-2" d="m2295.64,514.67c0-6.55,9.33-11.65,22.7-11.65,12.02,0,21.37,5.1,21.37,11.65s-9.35,12.38-21.37,12.38c-12.43.06-22.59-5.38-22.7-12.16,0-.07,0-.14,0-.22Zm22.7,9.46c7.99,0,16.03-4.37,16.03-9.46s-8.02-8.74-16.03-8.74c-9.35,0-17.36,3.64-17.36,8.74s8.01,9.46,17.36,9.46Zm-4.01-3.64h-4.01v-10.92h8.02c1.33,0,4.01,0,5.34.73,1.33.74,2.66,1.46,2.66,2.19,0,1.46-1.33,2.91-3.98,2.91l3.98,5.1h-5.34l-2.66-4.37h-4.01v4.37h0Zm0-6.54h5.34c1.33,0,1.33-.74,1.33-1.46,0,0,0-.73-1.33-.73h-5.34v2.19h0Z"/>
  <path class="cls-3" d="m1636.27,100c-175.67,0-332.65,72.76-332.65,207.2,0,154.17,278.42,164.82,278.42,242.27,0,32.61-46.77,61.8-126.64,61.8-113.36,0-198.08-40.79-198.08-40.79l-36.25,135.66s97.6,34.46,227.18,34.46c192.06,0,343.18-76.34,343.18-213.07,0-162.91-279.57-173.24-279.57-245.13,0-25.55,38.39-53.54,118.04-53.54,89.86,0,163.18,29.67,163.18,29.67l35.48-131.02s-79.78-27.5-192.28-27.5ZM29.1,109.89l-4.25,19.78s73.9,10.81,140.46,32.37c85.7,24.72,91.81,39.12,106.24,83.82l157.28,484.54h210.84L964.5,109.89h-210.36l-208.71,421.88-85.17-357.61c-7.81-40.93-47.38-64.27-95.8-64.27,0,0-335.35,0-335.35,0Zm1019.99,0l-165.02,620.5h200.59l164.44-620.5h-200.01Zm1118.78,0c-48.37,0-74,20.7-92.8,56.86l-293.88,563.64h210.36l40.7-93.94h256.28l24.75,93.94h185.61l-161.93-620.5h-169.08Zm27.36,167.64l62.35,232.84h-167.05l104.7-232.84Z"/>
  <path class="cls-1" d="m-64.04,242.91h2639.13v2592.34H-64.04V242.91Z"/>
</svg>